fd_10_states
version=1
nRows=19
nColumns=17
inDegrees=yes

# SIMM Motion File Header:
name fd_10_states
datacolumns 17
datarows 19
otherdata 1
range 0.488726 0.496580
endheader
time	/jointset/r_shoulder/r_shoulder_elev/value	/jointset/r_shoulder/r_shoulder_elev/speed	/jointset/r_elbow/r_elbow_flex/value	/jointset/r_elbow/r_elbow_flex/speed	/forceset/TRIlong/activation	/forceset/TRIlong/fiber_length	/forceset/TRIlat/activation	/forceset/TRIlat/fiber_length	/forceset/TRImed/activation	/forceset/TRImed/fiber_length	/forceset/BIClong/activation	/forceset/BIClong/fiber_length	/forceset/BICshort/activation	/forceset/BICshort/fiber_length	/forceset/BRA/activation	/forceset/BRA/fiber_length
      0.488726	      0.160350	    131.839462	    128.009764	    210.250393	      0.024351	      0.182179	      0.365519	      0.115444	      0.358575	      0.110531	      0.957098	      0.064350	      0.558525	      0.063746	      0.542281	      0.052277
      0.489141	      0.214974	    131.650414	    128.096855	    209.842588	      0.024327	      0.182239	      0.363812	      0.115478	      0.356917	      0.110564	      0.958007	      0.064263	      0.551140	      0.063693	      0.535247	      0.052249
      0.489397	      0.248659	    131.529628	    128.150537	    209.573399	      0.024312	      0.182319	      0.362770	      0.115499	      0.355904	      0.110585	      0.958558	      0.064210	      0.546661	      0.063660	      0.530979	      0.052231
      0.489653	      0.282315	    131.421799	    128.204152	    209.310028	      0.024297	      0.182327	      0.361736	      0.115519	      0.354899	      0.110605	      0.959102	      0.064156	      0.542242	      0.063628	      0.526767	      0.052213
      0.489818	      0.304014	    131.345410	    128.238705	    209.127203	      0.024288	      0.182344	      0.361073	      0.115533	      0.354255	      0.110618	      0.959449	      0.064122	      0.539422	      0.063607	      0.524079	      0.052202
      0.489889	      0.313383	    131.311782	    128.253621	    209.046325	      0.024284	      0.182354	      0.360788	      0.115539	      0.353978	      0.110624	      0.959598	      0.064107	      0.538211	      0.063598	      0.522925	      0.052197
      0.489980	      0.325289	    131.268877	    128.272573	    208.942328	      0.024279	      0.182367	      0.360427	      0.115546	      0.353627	      0.110631	      0.959786	      0.064088	      0.536679	      0.063586	      0.521464	      0.052190
      0.490000	      0.327962	    131.259225	    128.276828	    208.918799	      0.024292	      0.182370	      0.360347	      0.115548	      0.353550	      0.110633	      0.959824	      0.064084	      0.536336	      0.063584	      0.521137	      0.052189
      0.490004	      0.328524	    131.257193	    128.277723	    208.913842	      0.024943	      0.182371	      0.360564	      0.115548	      0.353772	      0.110633	      0.959662	      0.064083	      0.536264	      0.063583	      0.521068	      0.052189
      0.490009	      0.329086	    131.255160	    128.278618	    208.908879	      0.025719	      0.182371	      0.360827	      0.115548	      0.354040	      0.110634	      0.959466	      0.064082	      0.536192	      0.063583	      0.520999	      0.052188
      0.490030	      0.331897	    131.244941	    128.283092	    208.883963	      0.029566	      0.182372	      0.362140	      0.115550	      0.355379	      0.110635	      0.958492	      0.064078	      0.535831	      0.063580	      0.520656	      0.052187
      0.490137	      0.345950	    131.191880	    128.305455	    208.755622	      0.048006	      0.182373	      0.368624	      0.115558	      0.361996	      0.110643	      0.953645	      0.064056	      0.534036	      0.063567	      0.518943	      0.052179
      0.490481	      0.391038	    130.993836	    128.377174	    208.282473	      0.100077	      0.182363	      0.388632	      0.115578	      0.382395	      0.110663	      0.938366	      0.063987	      0.528336	      0.063524	      0.513506	      0.052156
      0.490965	      0.454350	    130.628880	    128.477773	    207.401106	      0.160529	      0.182339	      0.414882	      0.115599	      0.409126	      0.110683	      0.917584	      0.063894	      0.520485	      0.063463	      0.506013	      0.052122
      0.491594	      0.536373	    129.979472	    128.607832	    205.787526	      0.224841	      0.182306	      0.446151	      0.115618	      0.440925	      0.110702	      0.891739	      0.063781	      0.510558	      0.063386	      0.496533	      0.052079
      0.492414	      0.642500	    128.803186	    128.775417	    202.784436	      0.293122	      0.182273	      0.482820	      0.115637	      0.478163	      0.110720	      0.859926	      0.063643	      0.498084	      0.063285	      0.484612	      0.052022
      0.493475	      0.778043	    126.730464	    128.987725	    197.336022	      0.364634	      0.182245	      0.524691	      0.115656	      0.520622	      0.110739	      0.821619	      0.063479	      0.482678	      0.063157	      0.469876	      0.051950
      0.494838	      0.948514	    123.217570	    129.250564	    187.822407	      0.438471	      0.182230	      0.571243	      0.115675	      0.567764	      0.110759	      0.776545	      0.063285	      0.463989	      0.062997	      0.451978	      0.051860
      0.496580	      1.158333	    117.453585	    129.564439	    171.878713	      0.513456	      0.182233	      0.621561	      0.115696	      0.618654	      0.110781	      0.724849	      0.063061	      0.441767	      0.062798	      0.430666	      0.051749
